<?xml version="1.0" encoding="UTF-8"?>
<svg width="417mm" height="160mm" version="1.1" viewBox="0 0 417 160" xmlns="http://www.w3.org/2000/svg" xmlns:cc="http://creativecommons.org/ns#" xmlns:dc="http://purl.org/dc/elements/1.1/" xmlns:osb="http://www.openswatchbook.org/uri/2009/osb" xmlns:rdf="http://www.w3.org/1999/02/22-rdf-syntax-ns#" xmlns:xlink="http://www.w3.org/1999/xlink">
 <defs>
  <linearGradient id="linearGradient3299" x1="37.251" x2="36.902" y1="-1.0444" y2="113.14" gradientTransform="translate(10.691 13.866)" gradientUnits="userSpaceOnUse">
   <stop stop-color="#00c08a" offset="0"/>
   <stop stop-color="#00d2a2" offset="1"/>
  </linearGradient>
  <linearGradient id="linearGradient853" x1="81.675" x2="83.005" y1="19.099" y2="102.05" gradientTransform="matrix(1.0558 0 0 1.0558 12.366 -3.6738)" gradientUnits="userSpaceOnUse">
   <stop stop-color="#00000b" offset="0"/>
   <stop stop-color="#323232" offset="1"/>
  </linearGradient>
  <clipPath id="clipPath1117">
   <path d="m87.621 15.555-11.994 10.289-6.3525 83.147 136.98 31.956 234.42-21.898-7.1486-95.729z" fill="none" stroke="#000" stroke-width=".26458px"/>
  </clipPath>
 </defs>
 <metadata>
  <rdf:RDF>
   <cc:Work rdf:about="">
    <dc:format>image/svg+xml</dc:format>
    <dc:type rdf:resource="http://purl.org/dc/dcmitype/StillImage"/>
    <dc:title/>
   </cc:Work>
  </rdf:RDF>
 </metadata>
 <path d="m9.1242 12.299 40 40v50l10 20v-70l40-40" fill="none" stroke="url(#linearGradient3299)" stroke-linecap="round" stroke-linejoin="round" stroke-width="4.365"/>
 <g transform="matrix(.93258 0 0 1.0723 9.1242 12.299)" clip-path="url(#clipPath1117)" fill="url(#linearGradient853)" stroke-width=".29351" aria-label="hopper">
  <path d="m128.79 103.53h-5.9594v-34.564q0-23.003-15.375-23.003-3.814 0-7.5088 1.4302-3.5756 1.4302-6.7937 4.0524-3.0989 2.6221-5.4826 6.1977-2.3837 3.4564-3.5756 7.5088v38.378h-5.9594v-87.007h5.9594v39.808q3.814-7.2704 10.488-11.561 6.7937-4.2907 14.541-4.2907 5.125 0 8.8198 1.907 3.6948 1.907 6.0785 5.4826 2.5029 3.5756 3.5756 8.7007 1.1919 5.0059 1.1919 11.323z"/>
  <path d="m166.18 104.72q-6.5553 0-12.157-2.5029-5.4826-2.6221-9.535-7.032-4.0524-4.4099-6.3169-10.25-2.2646-5.8402-2.2646-12.276 0-6.5553 2.2646-12.395 2.3837-5.8402 6.4361-10.25 4.0524-4.4099 9.535-6.9128 5.6018-2.6221 12.038-2.6221t11.919 2.6221q5.4826 2.5029 9.535 6.9128 4.1715 4.4099 6.4361 10.25 2.3837 5.8402 2.3837 12.395 0 6.4361-2.3837 12.276-2.2646 5.8402-6.3169 10.25-4.0524 4.4099-9.6542 7.032-5.4826 2.5029-11.919 2.5029zm-24.314-31.823q0 5.4826 1.907 10.369 1.907 4.7675 5.125 8.3431 3.3372 3.5756 7.7472 5.721 4.4099 2.0262 9.4158 2.0262 5.0059 0 9.4158-2.0262 4.4099-2.1454 7.7472-5.8402t5.2442-8.4623q1.907-4.8867 1.907-10.488 0-5.4826-1.907-10.25-1.907-4.8867-5.2442-8.4623-3.3372-3.6948-7.7472-5.8402-4.2907-2.1454-9.2966-2.1454t-9.4158 2.1454-7.7472 5.8402q-3.218 3.6948-5.2442 8.7007-1.907 4.8867-1.907 10.369z"/>
  <path d="m234.39 104.72q-7.9855 0-14.302-4.1716-6.1977-4.2907-10.012-10.369v38.736h-5.9594v-87.364h5.4826v12.395q3.814-5.9594 10.012-9.6541 6.3169-3.814 13.468-3.814 6.4361 0 11.919 2.7413t9.4158 7.2704q3.9332 4.4099 6.0785 10.25 2.2646 5.8402 2.2646 11.919 0 6.4361-2.0262 12.276-2.0262 5.8402-5.8402 10.25-3.6948 4.4099-8.939 7.032-5.2442 2.5029-11.561 2.5029zm-1.4302-5.3634q5.3634 0 9.7733-2.2646t7.5088-5.9594q3.0989-3.814 4.7675-8.5815 1.6686-4.8867 1.6686-9.8925 0-5.3634-1.907-10.131-1.907-4.8867-5.3634-8.5815-3.3372-3.6948-7.8663-5.8402-4.5291-2.2646-9.6542-2.2646-3.218 0-6.9128 1.4302-3.5756 1.3111-6.7937 3.6948-3.218 2.2646-5.4826 5.2442-2.2646 2.9797-2.6221 6.3169v20.381q1.5494 3.4564 3.9332 6.4361t5.3634 5.2442q2.9797 2.2646 6.4361 3.5756 3.4564 1.1919 7.1512 1.1919z"/>
  <path d="m300.64 104.72q-7.9855 0-14.302-4.1716-6.1977-4.2907-10.012-10.369v38.736h-5.9594v-87.364h5.4826v12.395q3.814-5.9594 10.012-9.6541 6.3169-3.814 13.468-3.814 6.4361 0 11.919 2.7413t9.4158 7.2704q3.9332 4.4099 6.0785 10.25 2.2646 5.8402 2.2646 11.919 0 6.4361-2.0262 12.276t-5.8402 10.25q-3.6948 4.4099-8.939 7.032-5.2442 2.5029-11.561 2.5029zm-1.4302-5.3634q5.3634 0 9.7733-2.2646 4.4099-2.2646 7.5088-5.9594 3.0989-3.814 4.7675-8.5815 1.6686-4.8867 1.6686-9.8925 0-5.3634-1.907-10.131-1.907-4.8867-5.3634-8.5815-3.3372-3.6948-7.8663-5.8402-4.5291-2.2646-9.6542-2.2646-3.218 0-6.9128 1.4302-3.5756 1.3111-6.7937 3.6948-3.218 2.2646-5.4826 5.2442-2.2646 2.9797-2.6221 6.3169v20.381q1.5494 3.4564 3.9332 6.4361t5.3634 5.2442q2.9797 2.2646 6.4361 3.5756 3.4564 1.1919 7.1512 1.1919z"/>
  <path d="m362.95 104.72q-6.5553 0-12.157-2.5029-5.6018-2.6221-9.7733-7.032-4.0524-4.5291-6.4361-10.369-2.2646-5.8402-2.2646-12.515 0-6.5553 2.2646-12.276 2.3837-5.8402 6.4361-10.131 4.0524-4.4099 9.535-6.9128 5.6018-2.5029 12.038-2.5029 6.5553 0 12.157 2.6221 5.6018 2.5029 9.6542 6.9128 4.0524 4.2907 6.3169 10.131 2.2646 5.721 2.2646 12.157 0 0.59594 0 1.5494 0 0.83431-0.11919 1.0727h-54.349q0.35756 5.3634 2.5029 10.012 2.1454 4.5291 5.3634 7.8663 3.3372 3.3372 7.628 5.2442t9.1774 1.907q3.218 0 6.3169-0.83431 3.0989-0.9535 5.721-2.5029 2.7413-1.5494 4.7675-3.6948 2.1454-2.2646 3.3372-4.8867l5.2442 1.4302q-1.3111 3.3372-3.9332 6.1977-2.5029 2.7413-5.9594 4.7675-3.3372 2.0262-7.3896 3.0989-4.0524 1.1919-8.3431 1.1919zm24.314-34.564q-0.35756-5.4826-2.5029-10.012-2.0262-4.5291-5.3634-7.7472-3.218-3.3372-7.5088-5.125-4.2907-1.907-9.1774-1.907-4.8867 0-9.1774 1.907-4.2907 1.7878-7.628 5.125-3.218 3.218-5.2442 7.8663-1.907 4.5291-2.2646 9.8925z"/>
  <path d="m428.92 46.912q-8.3431 0.23837-14.66 5.0059-6.1977 4.6483-8.7006 12.872v38.736h-5.9594v-61.977h5.721v15.256q3.218-6.5553 8.4623-10.608 5.3634-4.1715 11.442-4.7675 1.1919-0.11919 2.1454-0.11919t1.5494 0z"/>
 </g>
</svg>
