<?xml version="1.0" encoding="UTF-8"?>
<svg width="138mm" height="138mm" version="1.1" viewBox="0 0 138 138" xmlns="http://www.w3.org/2000/svg" xmlns:cc="http://creativecommons.org/ns#" xmlns:dc="http://purl.org/dc/elements/1.1/" xmlns:osb="http://www.openswatchbook.org/uri/2009/osb" xmlns:rdf="http://www.w3.org/1999/02/22-rdf-syntax-ns#" xmlns:xlink="http://www.w3.org/1999/xlink">
 <defs>
  <linearGradient id="linearGradient3299" x1="37.251" x2="36.902" y1="-1.0444" y2="113.14" gradientTransform="translate(10.691 14.924)" gradientUnits="userSpaceOnUse">
   <stop stop-color="#00c08a" offset="0"/>
   <stop stop-color="#00d2a2" offset="1"/>
  </linearGradient>
  <linearGradient id="linearGradient853" x1="81.675" x2="83.005" y1="19.099" y2="102.05" gradientTransform="matrix(1.0558 0 0 1.0558 12.366 -3.6738)" gradientUnits="userSpaceOnUse">
   <stop stop-color="#00000b" offset="0"/>
   <stop stop-color="#323232" offset="1"/>
  </linearGradient>
  <clipPath id="clipPath862">
   <path d="m87.621 15.555-11.994 10.289-6.3525 83.147 72.929-0.75688-9.7471-76.294z" fill="none" stroke="#000" stroke-width=".26458px"/>
  </clipPath>
 </defs>
 <metadata>
  <rdf:RDF>
   <cc:Work rdf:about="">
    <dc:format>image/svg+xml</dc:format>
    <dc:type rdf:resource="http://purl.org/dc/dcmitype/StillImage"/>
    <dc:title/>
   </cc:Work>
  </rdf:RDF>
 </metadata>
 <path d="m9.1242 13.358 40 40v50l10 20v-70l40-40" fill="none" stroke="url(#linearGradient3299)" stroke-linecap="round" stroke-linejoin="round" stroke-width="4.365"/>
 <g transform="matrix(.93258 0 0 1.0723 9.1242 13.358)" clip-path="url(#clipPath862)" fill="url(#linearGradient853)" aria-label="h">
  <path d="m128.79 103.53h-5.9594v-34.564q0-23.003-15.375-23.003-3.814 0-7.5088 1.4302-3.5756 1.4302-6.7937 4.0524-3.0989 2.6221-5.4826 6.1977-2.3837 3.4564-3.5756 7.5088v38.378h-5.9594v-87.007h5.9594v39.808q3.814-7.2704 10.488-11.561 6.7937-4.2907 14.541-4.2907 5.125 0 8.8198 1.907 3.6948 1.907 6.0785 5.4826 2.5029 3.5756 3.5756 8.7007 1.1919 5.0059 1.1919 11.323z" fill="url(#linearGradient853)" stroke-width=".29351"/>
 </g>
</svg>
